<svg width="157" height="126" viewBox="0 0 157 126" fill="none" xmlns="http://www.w3.org/2000/svg">
<g clip-path="url(#clip0_4_2)">
<g clip-path="url(#clip1_4_2)">
<g clip-path="url(#clip2_4_2)">
<path d="M67.9433 15.639C68.4259 15.639 68.8167 16.0296 68.817 16.5119C68.817 16.9942 68.4262 17.3848 67.9433 17.3852H59.5925L53.5807 23.3936C53.2399 23.7342 52.6873 23.7342 52.3445 23.3936C52.0037 23.0531 52.0037 22.5008 52.3445 22.1585L57.1226 17.3827H42.9823C38.9487 17.3827 36.2757 18.3235 34.6424 20.2223C32.9828 22.1539 32.31 25.1419 32.31 29.1928C32.31 29.2169 32.31 29.2407 32.3079 29.2649L32.3822 42.1071L37.5273 36.9649C37.868 36.6243 38.4206 36.6243 38.7635 36.9649C39.1042 37.3054 39.1042 37.8577 38.7635 38.2004L32.3976 44.5627C32.4697 57.1039 32.4652 69.538 32.393 82.0792C41.3182 90.8992 50.119 99.6884 58.9418 108.606H67.8298C68.3124 108.606 68.7032 108.997 68.7036 109.479C68.7036 109.962 68.3128 110.352 67.8298 110.352H60.669L69.7538 119.537L69.7559 119.534C72.6233 122.4 75.2109 124.035 77.7488 124.229C80.2513 124.419 82.8064 123.194 85.6584 120.346L95.6583 110.352H88.4015C87.9189 110.352 87.5281 109.962 87.5277 109.479C87.5277 108.997 87.9186 108.606 88.4015 108.606H97.4054L103.227 102.787C103.568 102.447 104.121 102.447 104.463 102.787C104.804 103.128 104.804 103.68 104.463 104.023L99.8753 108.608H114.015C118.049 108.608 120.722 107.668 122.355 105.769C124.015 103.837 124.688 100.849 124.688 96.7984H124.692L124.618 83.8841L119.01 89.489C118.669 89.8296 118.116 89.8296 117.774 89.489C117.433 89.1485 117.433 88.5962 117.774 88.2535L124.602 81.4285C124.53 68.8873 124.535 56.4532 124.607 43.912C115.682 35.092 106.881 26.3028 98.0582 17.3852H88.9016C88.419 17.3852 88.0282 16.9946 88.0278 16.5119C88.0278 16.0296 88.4186 15.639 88.9016 15.639H96.331L87.2875 6.496C87.2721 6.48305 87.2591 6.46975 87.2441 6.4568C84.3767 3.591 81.7891 1.95615 79.2512 1.76225C76.7487 1.5722 74.1936 2.79685 71.3416 5.6448L61.3417 15.639H67.9458H67.9433ZM42.9823 15.639H58.8697L70.1033 4.41175C73.3419 1.17495 76.3403 -0.206503 79.3779 0.0248467C82.3784 0.251997 85.3159 2.06325 88.4778 5.22375C88.4953 5.24125 88.5107 5.25665 88.5258 5.2738L98.7789 15.639H114.015C118.593 15.639 121.691 16.7828 123.679 19.0939C125.64 21.3748 126.433 24.7292 126.433 29.1973C126.433 29.2257 126.43 29.2519 126.428 29.2778L126.35 43.1875L136.306 53.0267L136.308 53.0246C139.47 56.1851 141.283 59.1185 141.51 62.1194C141.741 65.1553 140.356 68.152 137.12 71.3888L126.345 82.1576L126.428 96.8026H126.433C126.433 101.27 125.638 104.625 123.679 106.906C121.691 109.217 118.592 110.361 114.015 110.361H98.1282L86.8946 121.588C83.656 124.825 80.6576 126.206 77.62 125.975C74.6195 125.748 71.682 123.937 68.5201 120.776L68.5222 120.774L58.219 110.359H42.9823C38.4049 110.359 35.3063 109.215 33.319 106.904C31.3579 104.623 30.565 101.268 30.5654 96.8005H30.5696L30.6505 82.8103L20.7423 73.0212C20.7248 73.0058 20.7073 72.9907 20.6922 72.9732C17.53 69.8127 15.7173 66.8794 15.4904 63.8785C15.2589 60.8426 16.6436 57.8459 19.8798 54.6091L30.6547 43.8403L30.5717 29.2778C30.5696 29.2516 30.5675 29.2232 30.5675 29.1973C30.5675 24.7296 31.3624 21.3748 33.3214 19.0939C35.3088 16.7825 38.4077 15.6387 42.9847 15.639H42.9823ZM30.7618 62.9989L30.6659 46.2955L21.1139 55.8421C18.264 58.6904 17.039 61.2461 17.2288 63.7476C17.4211 66.2837 19.0589 68.8723 21.926 71.7356C21.9389 71.7486 21.9544 71.764 21.9656 71.7794L30.6634 80.3722L30.7618 62.9968V62.9989ZM32.3801 84.519L32.31 96.8005H32.3146C32.3146 100.854 32.9873 103.841 34.6469 105.771C36.2802 107.672 38.9533 108.611 42.9869 108.611H56.4961L44.7469 96.733L32.3822 84.5169L32.3801 84.519ZM114.015 17.3852H100.506L112.255 29.2628L124.62 41.4785L124.69 29.2691C124.688 29.2449 124.688 29.2211 124.688 29.1973C124.688 25.1443 124.015 22.1564 122.355 20.2268C120.722 18.3256 118.049 17.3873 114.015 17.3873V17.3852ZM126.337 45.6232L126.238 62.9989L126.334 79.7023L135.886 70.1557C138.736 67.3074 139.961 64.7517 139.771 62.2503C139.579 59.7121 137.941 57.1256 135.074 54.2619L135.076 54.2598L126.337 45.6256V45.6232Z" fill="white"/>
<g clip-path="url(#clip3_4_2)">
<g clip-path="url(#clip4_4_2)">
<g clip-path="url(#clip5_4_2)">
<g clip-path="url(#clip6_4_2)">
<g clip-path="url(#clip7_4_2)">
<g clip-path="url(#clip8_4_2)">
<path d="M79.8987 31.5C83.38 31.5 86.6001 31.9163 89.5592 32.7488C92.5058 33.5938 95.5022 34.9172 98.5483 36.7189L100.693 34.9482C102.185 33.7677 103.416 32.9601 104.386 32.5251C105.343 32.0902 106.443 31.8728 107.687 31.8728C109.179 31.8728 110.36 32.1959 111.23 32.842C112.1 33.5006 112.535 34.4512 112.535 35.6938C112.535 36.1908 112.442 36.7189 112.256 37.2781L108.339 50.139C107.904 51.6302 107.363 52.6864 106.717 53.3077C106.058 53.929 105.076 54.2396 103.77 54.2396C102.403 54.2396 101.209 53.8172 100.189 52.9722C99.1575 52.1396 97.5536 50.4186 95.3778 47.8092C93.2021 45.324 91.2314 43.5657 89.4659 42.5343C87.688 41.5154 85.8666 41.0059 84.0016 41.0059C82.634 41.0059 81.4839 41.4533 80.5514 42.3479C79.619 43.255 79.1527 44.3609 79.1527 45.6657C79.1527 47.1568 79.8987 48.5361 81.3907 49.8035C82.8826 51.0834 85.2138 52.6864 88.3843 54.6124C91.6169 56.5385 94.29 58.2781 96.4036 59.8314C98.5172 61.3846 100.32 63.3106 101.812 65.6095C103.304 67.9083 104.05 70.5488 104.05 73.5311C104.05 75.4571 103.739 77.3831 103.117 79.3092C101.625 84.2796 98.7348 88.0509 94.4454 90.6231C90.156 93.2077 85.1517 94.5 79.4325 94.5C75.1431 94.5 71.5375 94.003 68.6157 93.0089C65.694 92.0148 62.71 90.3373 59.6639 87.9763L56.307 90.7722C54.7529 92.0769 53.4785 92.9592 52.4839 93.4189C51.4892 93.8911 50.3703 94.1272 49.127 94.1272C47.6972 94.1272 46.5657 93.7855 45.7327 93.1021C44.8873 92.4186 44.4646 91.4867 44.4646 90.3062C44.4646 89.6849 44.5889 89.0325 44.8376 88.3491L49.4067 74.463C49.904 72.8476 50.5878 71.6982 51.4581 71.0148C52.3285 70.3314 53.4474 69.9896 54.8151 69.9896C56.2449 69.9896 57.5379 70.4867 58.6942 71.4808C59.838 72.4748 61.3424 74.2766 63.2074 76.8861C65.1967 79.7441 67.0492 81.7322 68.7649 82.8506C70.4683 83.9689 72.5011 84.5281 74.8633 84.5281C76.5418 84.5281 77.8286 84.2609 78.7238 83.7266C79.6314 83.2047 80.2717 82.3535 80.6447 81.1731C80.769 80.8624 80.8312 80.3964 80.8312 79.7751C80.8312 78.284 80.1163 76.9172 78.6865 75.6746C77.2567 74.432 75.0498 72.9408 72.0659 71.2012C68.8955 69.2751 66.3156 67.5479 64.3263 66.0195C62.3371 64.5035 60.6151 62.5962 59.1604 60.2973C57.6933 57.9985 56.9598 55.2959 56.9598 52.1893C56.9598 50.0148 57.3017 47.8713 57.9855 45.7589C59.291 41.4719 61.9641 38.0237 66.0048 35.4142C70.0455 32.8047 74.6768 31.5 79.8987 31.5Z" fill="white"/>
</g>
</g>
</g>
</g>
</g>
</g>
</g>
</g>
</g>
<defs>
<clipPath id="clip0_4_2">
<rect width="157" height="126" fill="white"/>
</clipPath>
<clipPath id="clip1_4_2">
<rect width="157" height="126" fill="white"/>
</clipPath>
<clipPath id="clip2_4_2">
<rect width="156.888" height="126" fill="white" transform="translate(0.0558243)"/>
</clipPath>
<clipPath id="clip3_4_2">
<rect width="68.0709" height="63" fill="white" transform="translate(44.4646 31.5)"/>
</clipPath>
<clipPath id="clip4_4_2">
<rect width="68.0709" height="63" fill="white" transform="translate(44.4646 31.5)"/>
</clipPath>
<clipPath id="clip5_4_2">
<rect width="68.0709" height="63" fill="white" transform="translate(44.4646 31.5)"/>
</clipPath>
<clipPath id="clip6_4_2">
<rect width="68.0709" height="63" fill="white" transform="translate(44.4646 31.5)"/>
</clipPath>
<clipPath id="clip7_4_2">
<rect width="68.0709" height="63" fill="white" transform="translate(44.4646 31.5)"/>
</clipPath>
<clipPath id="clip8_4_2">
<rect width="68.0709" height="63" fill="white" transform="translate(44.4646 31.5)"/>
</clipPath>
</defs>
</svg>
